<mxfile host="Electron" modified="2024-08-21T17:12:40.624Z" agent="Mozilla/5.0 (Macintosh; Intel Mac OS X 10_15_7) AppleWebKit/537.36 (KHTML, like Gecko) draw.io/24.6.4 Chrome/124.0.6367.207 Electron/30.0.6 Safari/537.36" etag="OqlYL7CsmmiJBL7cNW00" version="24.6.4" type="device">
  <diagram name="Page-1" id="-H_mtQnk-PTXWXPvYvuk">
    <mxGraphModel dx="2760" dy="2583" grid="1" gridSize="10" guides="1" tooltips="1" connect="1" arrows="1" fold="1" page="1" pageScale="1" pageWidth="1169" pageHeight="827" math="0" shadow="0">
      <root>
        <mxCell id="0" />
        <mxCell id="1" parent="0" />
        <mxCell id="st85K4Z8vBVdBcALYrPj-187" value="" style="rounded=0;whiteSpace=wrap;html=1;fillColor=#fff2cc;strokeColor=#d6b656;" vertex="1" parent="1">
          <mxGeometry x="560" y="-10" width="344.5" height="230" as="geometry" />
        </mxCell>
        <mxCell id="st85K4Z8vBVdBcALYrPj-186" value="" style="rounded=0;whiteSpace=wrap;html=1;fillColor=#fff2cc;strokeColor=#d6b656;" vertex="1" parent="1">
          <mxGeometry x="1282" y="-10" width="358" height="230" as="geometry" />
        </mxCell>
        <mxCell id="st85K4Z8vBVdBcALYrPj-108" value="pymongo-api&lt;div&gt;&lt;br&gt;&lt;/div&gt;&lt;div&gt;&lt;br&gt;&lt;/div&gt;&lt;div&gt;&lt;br&gt;&lt;/div&gt;&lt;div&gt;&lt;br&gt;&lt;/div&gt;&lt;div&gt;&lt;br&gt;&lt;/div&gt;&lt;div&gt;&lt;br&gt;&lt;/div&gt;&lt;div&gt;&lt;br&gt;&lt;/div&gt;" style="rounded=1;whiteSpace=wrap;html=1;" vertex="1" parent="1">
          <mxGeometry x="699.5" y="10" width="195" height="190" as="geometry" />
        </mxCell>
        <mxCell id="zA23MoTUsTF4_91t8viU-2" value="shard1" style="shape=cylinder3;whiteSpace=wrap;html=1;boundedLbl=1;backgroundOutline=1;size=15;" parent="1" vertex="1">
          <mxGeometry x="904.5" y="480" width="60" height="80" as="geometry" />
        </mxCell>
        <mxCell id="D9CXgukpsAMVDsTzwWb0-2" value="configSrv&lt;div&gt;&lt;br&gt;&lt;div&gt;Конфигурационный&lt;/div&gt;&lt;div&gt;сервер&lt;/div&gt;&lt;/div&gt;" style="rounded=1;whiteSpace=wrap;html=1;" parent="1" vertex="1">
          <mxGeometry x="1029.5" y="490" width="120" height="60" as="geometry" />
        </mxCell>
        <mxCell id="D9CXgukpsAMVDsTzwWb0-9" style="edgeStyle=orthogonalEdgeStyle;rounded=0;orthogonalLoop=1;jettySize=auto;html=1;entryX=0.5;entryY=0;entryDx=0;entryDy=0;exitX=0.5;exitY=1;exitDx=0;exitDy=0;startArrow=none;startFill=0;" parent="1" source="D9CXgukpsAMVDsTzwWb0-3" target="D9CXgukpsAMVDsTzwWb0-2" edge="1">
          <mxGeometry relative="1" as="geometry" />
        </mxCell>
        <mxCell id="D9CXgukpsAMVDsTzwWb0-4" value="shard2" style="shape=cylinder3;whiteSpace=wrap;html=1;boundedLbl=1;backgroundOutline=1;size=15;" parent="1" vertex="1">
          <mxGeometry x="1222" y="480" width="60" height="80" as="geometry" />
        </mxCell>
        <mxCell id="D9CXgukpsAMVDsTzwWb0-5" style="edgeStyle=orthogonalEdgeStyle;rounded=0;orthogonalLoop=1;jettySize=auto;html=1;entryX=0.5;entryY=0;entryDx=0;entryDy=0;entryPerimeter=0;startArrow=none;startFill=0;" parent="1" source="D9CXgukpsAMVDsTzwWb0-3" target="zA23MoTUsTF4_91t8viU-2" edge="1">
          <mxGeometry relative="1" as="geometry" />
        </mxCell>
        <mxCell id="D9CXgukpsAMVDsTzwWb0-6" style="edgeStyle=orthogonalEdgeStyle;rounded=0;orthogonalLoop=1;jettySize=auto;html=1;entryX=0.5;entryY=0;entryDx=0;entryDy=0;entryPerimeter=0;startArrow=none;startFill=0;" parent="1" source="D9CXgukpsAMVDsTzwWb0-3" target="D9CXgukpsAMVDsTzwWb0-4" edge="1">
          <mxGeometry relative="1" as="geometry" />
        </mxCell>
        <mxCell id="42_YZ537Ep9w2OHwn1Fl-1" value="shard1_r1" style="shape=cylinder3;whiteSpace=wrap;html=1;boundedLbl=1;backgroundOutline=1;size=15;" parent="1" vertex="1">
          <mxGeometry x="834.5" y="632" width="60" height="80" as="geometry" />
        </mxCell>
        <mxCell id="42_YZ537Ep9w2OHwn1Fl-2" value="shard1_r2" style="shape=cylinder3;whiteSpace=wrap;html=1;boundedLbl=1;backgroundOutline=1;size=15;" parent="1" vertex="1">
          <mxGeometry x="969.5" y="632" width="60" height="80" as="geometry" />
        </mxCell>
        <mxCell id="42_YZ537Ep9w2OHwn1Fl-3" style="edgeStyle=orthogonalEdgeStyle;rounded=0;orthogonalLoop=1;jettySize=auto;html=1;entryX=0.5;entryY=0;entryDx=0;entryDy=0;entryPerimeter=0;exitX=0.5;exitY=1;exitDx=0;exitDy=0;exitPerimeter=0;" parent="1" source="zA23MoTUsTF4_91t8viU-2" target="42_YZ537Ep9w2OHwn1Fl-1" edge="1">
          <mxGeometry relative="1" as="geometry">
            <Array as="points">
              <mxPoint x="934.5" y="602" />
              <mxPoint x="864.5" y="602" />
            </Array>
          </mxGeometry>
        </mxCell>
        <mxCell id="42_YZ537Ep9w2OHwn1Fl-4" style="edgeStyle=orthogonalEdgeStyle;rounded=0;orthogonalLoop=1;jettySize=auto;html=1;entryX=0.5;entryY=0;entryDx=0;entryDy=0;entryPerimeter=0;" parent="1" target="42_YZ537Ep9w2OHwn1Fl-2" edge="1">
          <mxGeometry relative="1" as="geometry">
            <mxPoint x="934.5" y="562" as="sourcePoint" />
            <Array as="points">
              <mxPoint x="934.5" y="602" />
              <mxPoint x="999.5" y="602" />
            </Array>
          </mxGeometry>
        </mxCell>
        <mxCell id="42_YZ537Ep9w2OHwn1Fl-5" value="shard2_r1" style="shape=cylinder3;whiteSpace=wrap;html=1;boundedLbl=1;backgroundOutline=1;size=15;" parent="1" vertex="1">
          <mxGeometry x="1154.5" y="631" width="60" height="80" as="geometry" />
        </mxCell>
        <mxCell id="42_YZ537Ep9w2OHwn1Fl-6" value="shard2_r2" style="shape=cylinder3;whiteSpace=wrap;html=1;boundedLbl=1;backgroundOutline=1;size=15;" parent="1" vertex="1">
          <mxGeometry x="1289.5" y="631" width="60" height="80" as="geometry" />
        </mxCell>
        <mxCell id="42_YZ537Ep9w2OHwn1Fl-7" style="edgeStyle=orthogonalEdgeStyle;rounded=0;orthogonalLoop=1;jettySize=auto;html=1;entryX=0.5;entryY=0;entryDx=0;entryDy=0;entryPerimeter=0;exitX=0.5;exitY=1;exitDx=0;exitDy=0;exitPerimeter=0;" parent="1" target="42_YZ537Ep9w2OHwn1Fl-5" edge="1">
          <mxGeometry relative="1" as="geometry">
            <mxPoint x="1254.5" y="560" as="sourcePoint" />
            <Array as="points">
              <mxPoint x="1254.5" y="601" />
              <mxPoint x="1184.5" y="601" />
            </Array>
          </mxGeometry>
        </mxCell>
        <mxCell id="42_YZ537Ep9w2OHwn1Fl-8" style="edgeStyle=orthogonalEdgeStyle;rounded=0;orthogonalLoop=1;jettySize=auto;html=1;entryX=0.5;entryY=0;entryDx=0;entryDy=0;entryPerimeter=0;" parent="1" target="42_YZ537Ep9w2OHwn1Fl-6" edge="1">
          <mxGeometry relative="1" as="geometry">
            <mxPoint x="1254.5" y="561" as="sourcePoint" />
            <Array as="points">
              <mxPoint x="1254.5" y="601" />
              <mxPoint x="1319.5" y="601" />
            </Array>
          </mxGeometry>
        </mxCell>
        <mxCell id="42_YZ537Ep9w2OHwn1Fl-9" style="edgeStyle=orthogonalEdgeStyle;rounded=0;orthogonalLoop=1;jettySize=auto;html=1;entryX=0;entryY=0.5;entryDx=0;entryDy=0;entryPerimeter=0;" parent="1" source="D9CXgukpsAMVDsTzwWb0-2" target="D9CXgukpsAMVDsTzwWb0-4" edge="1">
          <mxGeometry relative="1" as="geometry" />
        </mxCell>
        <mxCell id="42_YZ537Ep9w2OHwn1Fl-12" style="edgeStyle=orthogonalEdgeStyle;rounded=0;orthogonalLoop=1;jettySize=auto;html=1;entryX=1;entryY=0.5;entryDx=0;entryDy=0;entryPerimeter=0;" parent="1" source="D9CXgukpsAMVDsTzwWb0-2" target="zA23MoTUsTF4_91t8viU-2" edge="1">
          <mxGeometry relative="1" as="geometry" />
        </mxCell>
        <mxCell id="D9CXgukpsAMVDsTzwWb0-3" value="&lt;div&gt;mongos_router&lt;/div&gt;&lt;div&gt;&lt;br&gt;&lt;/div&gt;Роутер" style="rounded=1;whiteSpace=wrap;html=1;" parent="1" vertex="1">
          <mxGeometry x="1029.5" y="320" width="120" height="60" as="geometry" />
        </mxCell>
        <mxCell id="D9CXgukpsAMVDsTzwWb0-8" style="edgeStyle=orthogonalEdgeStyle;rounded=0;orthogonalLoop=1;jettySize=auto;html=1;startArrow=classic;startFill=1;exitX=0.5;exitY=1;exitDx=0;exitDy=0;entryX=0.25;entryY=0;entryDx=0;entryDy=0;" parent="1" source="st85K4Z8vBVdBcALYrPj-59" target="D9CXgukpsAMVDsTzwWb0-3" edge="1">
          <mxGeometry relative="1" as="geometry">
            <mxPoint x="796.5000000000005" y="180" as="sourcePoint" />
            <mxPoint x="1060" y="310" as="targetPoint" />
          </mxGeometry>
        </mxCell>
        <mxCell id="st85K4Z8vBVdBcALYrPj-7" value="Драйвер Redis" style="rounded=1;whiteSpace=wrap;html=1;" vertex="1" parent="1">
          <mxGeometry x="746.25" y="110" width="97.5" height="30" as="geometry" />
        </mxCell>
        <mxCell id="st85K4Z8vBVdBcALYrPj-8" value="redis_1" style="shape=cylinder3;whiteSpace=wrap;html=1;boundedLbl=1;backgroundOutline=1;size=15;" vertex="1" parent="1">
          <mxGeometry x="1049" y="90" width="60" height="80" as="geometry" />
        </mxCell>
        <mxCell id="st85K4Z8vBVdBcALYrPj-9" style="edgeStyle=orthogonalEdgeStyle;rounded=0;orthogonalLoop=1;jettySize=auto;html=1;entryX=-0.026;entryY=0.428;entryDx=0;entryDy=0;entryPerimeter=0;" edge="1" parent="1" source="st85K4Z8vBVdBcALYrPj-7" target="st85K4Z8vBVdBcALYrPj-8">
          <mxGeometry relative="1" as="geometry">
            <mxPoint x="990" y="130" as="targetPoint" />
          </mxGeometry>
        </mxCell>
        <mxCell id="st85K4Z8vBVdBcALYrPj-59" value="Драйвер Mongo" style="rounded=1;whiteSpace=wrap;html=1;" vertex="1" parent="1">
          <mxGeometry x="746.25" y="150" width="97.5" height="30" as="geometry" />
        </mxCell>
        <mxCell id="st85K4Z8vBVdBcALYrPj-155" value="pymongo-api&lt;div&gt;&lt;br&gt;&lt;/div&gt;&lt;div&gt;&lt;br&gt;&lt;/div&gt;&lt;div&gt;&lt;br&gt;&lt;/div&gt;&lt;div&gt;&lt;br&gt;&lt;/div&gt;&lt;div&gt;&lt;br&gt;&lt;/div&gt;&lt;div&gt;&lt;br&gt;&lt;/div&gt;&lt;div&gt;&lt;br&gt;&lt;/div&gt;" style="rounded=1;whiteSpace=wrap;html=1;" vertex="1" parent="1">
          <mxGeometry x="1290" y="10" width="195" height="190" as="geometry" />
        </mxCell>
        <mxCell id="st85K4Z8vBVdBcALYrPj-156" value="Драйвер Redis" style="rounded=1;whiteSpace=wrap;html=1;" vertex="1" parent="1">
          <mxGeometry x="1336.75" y="109" width="97.5" height="30" as="geometry" />
        </mxCell>
        <mxCell id="st85K4Z8vBVdBcALYrPj-161" style="edgeStyle=orthogonalEdgeStyle;rounded=0;orthogonalLoop=1;jettySize=auto;html=1;exitX=0.5;exitY=1;exitDx=0;exitDy=0;entryX=0.75;entryY=0;entryDx=0;entryDy=0;" edge="1" parent="1" source="st85K4Z8vBVdBcALYrPj-157" target="D9CXgukpsAMVDsTzwWb0-3">
          <mxGeometry relative="1" as="geometry" />
        </mxCell>
        <mxCell id="st85K4Z8vBVdBcALYrPj-157" value="Драйвер Mongo" style="rounded=1;whiteSpace=wrap;html=1;" vertex="1" parent="1">
          <mxGeometry x="1336.75" y="150" width="97.5" height="30" as="geometry" />
        </mxCell>
        <mxCell id="st85K4Z8vBVdBcALYrPj-164" value="redis_1" style="shape=cylinder3;whiteSpace=wrap;html=1;boundedLbl=1;backgroundOutline=1;size=15;" vertex="1" parent="1">
          <mxGeometry x="1055" y="100" width="60" height="80" as="geometry" />
        </mxCell>
        <mxCell id="st85K4Z8vBVdBcALYrPj-165" value="redis_1" style="shape=cylinder3;whiteSpace=wrap;html=1;boundedLbl=1;backgroundOutline=1;size=15;" vertex="1" parent="1">
          <mxGeometry x="1062" y="109" width="60" height="80" as="geometry" />
        </mxCell>
        <mxCell id="st85K4Z8vBVdBcALYrPj-166" style="edgeStyle=orthogonalEdgeStyle;rounded=0;orthogonalLoop=1;jettySize=auto;html=1;entryX=1;entryY=0;entryDx=0;entryDy=15;entryPerimeter=0;" edge="1" parent="1" source="st85K4Z8vBVdBcALYrPj-156" target="st85K4Z8vBVdBcALYrPj-165">
          <mxGeometry relative="1" as="geometry" />
        </mxCell>
        <mxCell id="st85K4Z8vBVdBcALYrPj-167" value="&lt;div style=&quot;text-align: center;&quot;&gt;&lt;span style=&quot;background-color: initial;&quot;&gt;Инстансев роутеров может быть несколько&lt;/span&gt;&lt;/div&gt;&lt;div style=&quot;text-align: center;&quot;&gt;&lt;span style=&quot;background-color: initial;&quot;&gt;Всё зависит от количества инстансов сервиса&lt;/span&gt;&lt;/div&gt;" style="text;whiteSpace=wrap;html=1;" vertex="1" parent="1">
          <mxGeometry x="1282" y="325" width="190" height="90" as="geometry" />
        </mxCell>
        <mxCell id="st85K4Z8vBVdBcALYrPj-168" value="&lt;div&gt;mongos_router&lt;/div&gt;&lt;div&gt;&lt;br&gt;&lt;/div&gt;Роутер" style="rounded=1;whiteSpace=wrap;html=1;" vertex="1" parent="1">
          <mxGeometry x="1039.5" y="330" width="120" height="60" as="geometry" />
        </mxCell>
        <mxCell id="st85K4Z8vBVdBcALYrPj-169" value="&lt;div&gt;mongos_router&lt;/div&gt;&lt;div&gt;&lt;br&gt;&lt;/div&gt;Роутер" style="rounded=1;whiteSpace=wrap;html=1;" vertex="1" parent="1">
          <mxGeometry x="1049.5" y="340" width="120" height="60" as="geometry" />
        </mxCell>
        <mxCell id="st85K4Z8vBVdBcALYrPj-170" value="&lt;div style=&quot;text-align: center;&quot;&gt;Скорей всего будем использовать кластерный редис&lt;/div&gt;&lt;div style=&quot;text-align: center;&quot;&gt;&lt;span style=&quot;background-color: initial;&quot;&gt;Всё зависит от количества инстансов сервиса&lt;/span&gt;&lt;/div&gt;" style="text;whiteSpace=wrap;html=1;" vertex="1" parent="1">
          <mxGeometry x="984" y="-10" width="186" height="90" as="geometry" />
        </mxCell>
        <mxCell id="st85K4Z8vBVdBcALYrPj-171" value="api-gateway" style="rounded=1;whiteSpace=wrap;html=1;" vertex="1" parent="1">
          <mxGeometry x="984" y="-340" width="161" height="80" as="geometry" />
        </mxCell>
        <mxCell id="st85K4Z8vBVdBcALYrPj-172" value="api-gateway" style="rounded=1;whiteSpace=wrap;html=1;" vertex="1" parent="1">
          <mxGeometry x="994" y="-330" width="161" height="80" as="geometry" />
        </mxCell>
        <mxCell id="st85K4Z8vBVdBcALYrPj-173" value="api-gateway" style="rounded=1;whiteSpace=wrap;html=1;" vertex="1" parent="1">
          <mxGeometry x="1004" y="-320" width="161" height="80" as="geometry" />
        </mxCell>
        <mxCell id="st85K4Z8vBVdBcALYrPj-175" style="edgeStyle=orthogonalEdgeStyle;rounded=0;orthogonalLoop=1;jettySize=auto;html=1;entryX=0.5;entryY=0;entryDx=0;entryDy=0;exitX=0.75;exitY=1;exitDx=0;exitDy=0;startArrow=classic;startFill=1;" edge="1" parent="1" source="st85K4Z8vBVdBcALYrPj-174" target="st85K4Z8vBVdBcALYrPj-155">
          <mxGeometry relative="1" as="geometry" />
        </mxCell>
        <mxCell id="st85K4Z8vBVdBcALYrPj-176" style="edgeStyle=orthogonalEdgeStyle;rounded=0;orthogonalLoop=1;jettySize=auto;html=1;entryX=0.5;entryY=0;entryDx=0;entryDy=0;exitX=0.25;exitY=1;exitDx=0;exitDy=0;startArrow=classic;startFill=1;" edge="1" parent="1" source="st85K4Z8vBVdBcALYrPj-174" target="st85K4Z8vBVdBcALYrPj-108">
          <mxGeometry relative="1" as="geometry" />
        </mxCell>
        <mxCell id="st85K4Z8vBVdBcALYrPj-174" value="api-gateway&lt;div&gt;(APISIX Gateway)&lt;/div&gt;&lt;div&gt;&lt;br&gt;&lt;/div&gt;&lt;div&gt;&lt;br&gt;&lt;/div&gt;&lt;div&gt;&lt;br&gt;&lt;/div&gt;&lt;div&gt;&lt;br&gt;&lt;/div&gt;" style="rounded=1;whiteSpace=wrap;html=1;" vertex="1" parent="1">
          <mxGeometry x="1014" y="-310" width="176" height="110" as="geometry" />
        </mxCell>
        <mxCell id="st85K4Z8vBVdBcALYrPj-179" style="edgeStyle=orthogonalEdgeStyle;rounded=0;orthogonalLoop=1;jettySize=auto;html=1;entryX=0.609;entryY=-0.025;entryDx=0;entryDy=0;entryPerimeter=0;" edge="1" parent="1" source="st85K4Z8vBVdBcALYrPj-178" target="st85K4Z8vBVdBcALYrPj-171">
          <mxGeometry relative="1" as="geometry" />
        </mxCell>
        <mxCell id="st85K4Z8vBVdBcALYrPj-178" value="WEB&lt;div&gt;или&lt;/div&gt;&lt;div&gt;мобильное приложение&lt;/div&gt;" style="shape=process;whiteSpace=wrap;html=1;backgroundOutline=1;" vertex="1" parent="1">
          <mxGeometry x="987" y="-600" width="191" height="100" as="geometry" />
        </mxCell>
        <mxCell id="st85K4Z8vBVdBcALYrPj-180" value="Пользователь" style="shape=umlActor;verticalLabelPosition=bottom;verticalAlign=top;html=1;outlineConnect=0;" vertex="1" parent="1">
          <mxGeometry x="1062" y="-700" width="30" height="60" as="geometry" />
        </mxCell>
        <mxCell id="st85K4Z8vBVdBcALYrPj-181" value="&lt;div style=&quot;text-align: center;&quot;&gt;&lt;span style=&quot;background-color: initial;&quot;&gt;Инстансев api-gateway будет нескольно&lt;/span&gt;&lt;/div&gt;&lt;div style=&quot;text-align: center;&quot;&gt;&lt;span style=&quot;background-color: initial;&quot;&gt;Реальное количество инстансев зависит от общего количества сервисов компании&lt;/span&gt;&lt;/div&gt;&lt;div style=&quot;text-align: center;&quot;&gt;&lt;span style=&quot;background-color: initial;&quot;&gt;Используем APISIX Gateway, т.к. в нём есть встроенный консул, которые будем использовать для Service Discovery&lt;/span&gt;&lt;/div&gt;" style="text;whiteSpace=wrap;html=1;" vertex="1" parent="1">
          <mxGeometry x="1200" y="-430" width="250" height="100" as="geometry" />
        </mxCell>
        <mxCell id="st85K4Z8vBVdBcALYrPj-184" style="edgeStyle=orthogonalEdgeStyle;rounded=0;orthogonalLoop=1;jettySize=auto;html=1;entryX=0;entryY=0.5;entryDx=0;entryDy=0;" edge="1" parent="1" source="st85K4Z8vBVdBcALYrPj-182" target="st85K4Z8vBVdBcALYrPj-183">
          <mxGeometry relative="1" as="geometry" />
        </mxCell>
        <mxCell id="st85K4Z8vBVdBcALYrPj-185" value="Получить список сервисов" style="edgeLabel;html=1;align=center;verticalAlign=middle;resizable=0;points=[];" vertex="1" connectable="0" parent="st85K4Z8vBVdBcALYrPj-184">
          <mxGeometry x="-0.0033" y="1" relative="1" as="geometry">
            <mxPoint as="offset" />
          </mxGeometry>
        </mxCell>
        <mxCell id="st85K4Z8vBVdBcALYrPj-182" value="consul_kv" style="rounded=0;whiteSpace=wrap;html=1;" vertex="1" parent="1">
          <mxGeometry x="1115" y="-250" width="120.5" height="40" as="geometry" />
        </mxCell>
        <mxCell id="st85K4Z8vBVdBcALYrPj-183" value="Consul" style="rounded=0;whiteSpace=wrap;html=1;" vertex="1" parent="1">
          <mxGeometry x="1560" y="-250" width="120.5" height="40" as="geometry" />
        </mxCell>
        <mxCell id="st85K4Z8vBVdBcALYrPj-191" style="edgeStyle=orthogonalEdgeStyle;rounded=0;orthogonalLoop=1;jettySize=auto;html=1;entryX=0.5;entryY=1;entryDx=0;entryDy=0;exitX=1;exitY=0.5;exitDx=0;exitDy=0;" edge="1" parent="1" source="st85K4Z8vBVdBcALYrPj-188" target="st85K4Z8vBVdBcALYrPj-201">
          <mxGeometry relative="1" as="geometry" />
        </mxCell>
        <mxCell id="st85K4Z8vBVdBcALYrPj-205" value="Регистрация сервиса" style="edgeLabel;html=1;align=center;verticalAlign=middle;resizable=0;points=[];" vertex="1" connectable="0" parent="st85K4Z8vBVdBcALYrPj-191">
          <mxGeometry x="0.3822" relative="1" as="geometry">
            <mxPoint y="-1" as="offset" />
          </mxGeometry>
        </mxCell>
        <mxCell id="st85K4Z8vBVdBcALYrPj-188" value="Сайдкар для регистрации в Consul" style="rounded=1;whiteSpace=wrap;html=1;" vertex="1" parent="1">
          <mxGeometry x="1510" y="10" width="120" height="60" as="geometry" />
        </mxCell>
        <mxCell id="st85K4Z8vBVdBcALYrPj-193" style="edgeStyle=orthogonalEdgeStyle;rounded=0;orthogonalLoop=1;jettySize=auto;html=1;entryX=0.25;entryY=1;entryDx=0;entryDy=0;exitX=0;exitY=0.5;exitDx=0;exitDy=0;" edge="1" parent="1" source="st85K4Z8vBVdBcALYrPj-189" target="st85K4Z8vBVdBcALYrPj-198">
          <mxGeometry relative="1" as="geometry" />
        </mxCell>
        <mxCell id="st85K4Z8vBVdBcALYrPj-204" value="Регистрация сервиса" style="edgeLabel;html=1;align=center;verticalAlign=middle;resizable=0;points=[];" vertex="1" connectable="0" parent="st85K4Z8vBVdBcALYrPj-193">
          <mxGeometry x="0.2818" y="-4" relative="1" as="geometry">
            <mxPoint as="offset" />
          </mxGeometry>
        </mxCell>
        <mxCell id="st85K4Z8vBVdBcALYrPj-189" value="Сайдкар для регистрации в Consul" style="rounded=1;whiteSpace=wrap;html=1;" vertex="1" parent="1">
          <mxGeometry x="570" y="15" width="120" height="60" as="geometry" />
        </mxCell>
        <mxCell id="st85K4Z8vBVdBcALYrPj-192" value="Consul" style="rounded=0;whiteSpace=wrap;html=1;" vertex="1" parent="1">
          <mxGeometry x="490" y="-280" width="120.5" height="40" as="geometry" />
        </mxCell>
        <mxCell id="st85K4Z8vBVdBcALYrPj-194" style="edgeStyle=orthogonalEdgeStyle;rounded=0;orthogonalLoop=1;jettySize=auto;html=1;entryX=1;entryY=0.5;entryDx=0;entryDy=0;exitX=0;exitY=0.5;exitDx=0;exitDy=0;" edge="1" parent="1" source="st85K4Z8vBVdBcALYrPj-182" target="st85K4Z8vBVdBcALYrPj-198">
          <mxGeometry relative="1" as="geometry">
            <mxPoint x="1246" y="-220" as="sourcePoint" />
            <mxPoint x="1570" y="-220" as="targetPoint" />
          </mxGeometry>
        </mxCell>
        <mxCell id="st85K4Z8vBVdBcALYrPj-195" value="Получить список сервисов" style="edgeLabel;html=1;align=center;verticalAlign=middle;resizable=0;points=[];" vertex="1" connectable="0" parent="st85K4Z8vBVdBcALYrPj-194">
          <mxGeometry x="-0.0033" y="1" relative="1" as="geometry">
            <mxPoint as="offset" />
          </mxGeometry>
        </mxCell>
        <mxCell id="st85K4Z8vBVdBcALYrPj-196" value="Consul" style="rounded=0;whiteSpace=wrap;html=1;" vertex="1" parent="1">
          <mxGeometry x="500" y="-270" width="120.5" height="40" as="geometry" />
        </mxCell>
        <mxCell id="st85K4Z8vBVdBcALYrPj-197" value="Consul" style="rounded=0;whiteSpace=wrap;html=1;" vertex="1" parent="1">
          <mxGeometry x="510" y="-260" width="120.5" height="40" as="geometry" />
        </mxCell>
        <mxCell id="st85K4Z8vBVdBcALYrPj-198" value="Consul" style="rounded=0;whiteSpace=wrap;html=1;" vertex="1" parent="1">
          <mxGeometry x="520" y="-250" width="120.5" height="40" as="geometry" />
        </mxCell>
        <mxCell id="st85K4Z8vBVdBcALYrPj-199" value="Consul" style="rounded=0;whiteSpace=wrap;html=1;" vertex="1" parent="1">
          <mxGeometry x="1570" y="-240" width="120.5" height="40" as="geometry" />
        </mxCell>
        <mxCell id="st85K4Z8vBVdBcALYrPj-200" value="Consul" style="rounded=0;whiteSpace=wrap;html=1;" vertex="1" parent="1">
          <mxGeometry x="1580" y="-230" width="120.5" height="40" as="geometry" />
        </mxCell>
        <mxCell id="st85K4Z8vBVdBcALYrPj-201" value="Consul" style="rounded=0;whiteSpace=wrap;html=1;" vertex="1" parent="1">
          <mxGeometry x="1590" y="-220" width="120.5" height="40" as="geometry" />
        </mxCell>
        <mxCell id="st85K4Z8vBVdBcALYrPj-203" value="&lt;div style=&quot;text-align: center;&quot;&gt;Область с жёлтой расцветкой - это под сервиса. Предположу, что для регистрации в Consul используется сайдкар, который поднимается в одном поде с контейнером сервиса. Данный сайдкар знает ip пода, имя сервиса и спокойно может зарегать его в Consul&lt;/div&gt;" style="text;whiteSpace=wrap;html=1;" vertex="1" parent="1">
          <mxGeometry x="1660" y="80" width="260" height="140" as="geometry" />
        </mxCell>
      </root>
    </mxGraphModel>
  </diagram>
</mxfile>
